<svg xmlns="http://www.w3.org/2000/svg" viewBox="0 0 186.2 43.69" width="186.2" height="43.69"><defs><style>.cls-1{fill:#030303;}</style></defs><title>Asset 1</title><g id="Layer_2" data-name="Layer 2"><g id="Layer_1-2" data-name="Layer 1"><path class="cls-1" d="M60.36,30.55c-4.59,5.81-13.88,6-19,1.28a14.24,14.24,0,0,1-.62-20c4.5-4.86,14.16-6.08,19.56.38V8.44h3.33v26H60.36Zm-4.85-8.11H44.38c-.72,6,1.74,7.49,4.95,7.59C54.54,30.2,56.12,28.35,55.51,22.44ZM49.34,22V20.88a4,4,0,0,1,0-5.08V13.51c-2.57-.12-4.64,1.33-4.9,3.62a43.61,43.61,0,0,0,0,4.89Zm6.24,0a40.38,40.38,0,0,1,0-4.29c.25-2.27-2.56-4.79-5-4.12,0,.74,0,1.48,0,2.23A3.89,3.89,0,0,1,50.57,21c.08.31-.11.67.15,1ZM51,18.71c0-.54,0-.78,0-1,0-.7-.32-1.17-1.06-1.14s-.92.52-.91,1.15,0,1.11,0,1.66a.86.86,0,0,0,.88.8.9.9,0,0,0,1-.7A2.73,2.73,0,0,0,51,18.71Z"/><path class="cls-1" d="M30.35,4.73,18.51,34.47H15.35L3.52,4.77l-.22.06V34.46H0V.05H5.07L16.94,29.88,28.78,0h5V34.47H30.63V4.8Z"/><path class="cls-1" d="M141.87,12.32V8.43h3.29v26h-3.27V30.58c-3.5,4-7.72,5.11-12.48,4.4a12.46,12.46,0,0,1-8.24-5.08c-4.2-5.52-3.29-14,1.85-18.74C127.28,7.23,136.37,5.89,141.87,12.32ZM126.43,18a6.27,6.27,0,0,0-.15,4.5,1.53,1.53,0,0,1-.22,1.47,1.44,1.44,0,0,0,.15,2.22l-1,1.33c-1.18,0-2.25-.13-2.61,1.33A6.65,6.65,0,0,0,124.63,31c.62.52,1.3,0,1.52-.78a6.35,6.35,0,0,0,.16-1.25l2-2.22c.61.74,0,1.86.89,2.34.64,0,.41-.63.66-.83.33.29.41.82.93.81.58-.3.25-1,.6-1.46.48.48,0,1.37.84,1.5.82-.2.11-1.18.78-1.44.3.43-.14,1.18.62,1.43,1.1-.55.21-2,1.23-2.67l2.33,2.34a9.9,9.9,0,0,0,0,1.19,1.23,1.23,0,0,0,1.13,1.2,5.83,5.83,0,0,0,2.4-2,1.06,1.06,0,0,0-.53-1.32,2.14,2.14,0,0,0-.79-.23,10.07,10.07,0,0,0-1.09,0L137,26.12l.39,0c-1.16-2.57-.2-5.2-.63-7.76l1.6-1.72h.93c.7,0,1.3-.22,1.49-.95a1.09,1.09,0,0,0-.84-1.38.6.6,0,0,1-.39-.4c-.24-.63-.68-1-1.37-.86a1.37,1.37,0,0,0-1,1.48c0,.32,0,.63,0,.6l-1.45,1.58a6.34,6.34,0,0,0-8.32-.22,3.91,3.91,0,0,1-1.1-1.11,8.55,8.55,0,0,0,0-.93c-.07-.67-.31-1.29-1.06-1.42a1,1,0,0,0-1.26.84c-.08.28-.28.36-.5.45a1.09,1.09,0,0,0-.79,1.3,1.29,1.29,0,0,0,1.33,1c.36,0,.72,0,1.11,0Z"/><path class="cls-1" d="M186.13,22.53H162.82a9.48,9.48,0,0,0,7,9.09c4.19,1.05,8.81.18,11.84-5.41h3.65A13.06,13.06,0,0,1,169.88,35c-7.09-1.41-11.77-8.6-10.55-16S167,6.76,174.76,7.73A13.39,13.39,0,0,1,186.13,22.53Zm-23.21-3.1h19.36c-.28-4.83-4.53-8.54-9.8-8.59A9.47,9.47,0,0,0,162.92,19.43Z"/><path class="cls-1" d="M97.06,34.48H93.78V0h3.29V11.25c3-3.18,6.6-3.74,10.5-3.16s6.27,2.9,7.27,6.67a22.34,22.34,0,0,1,.72,5.69c0,4.64,0,9.28,0,14h-3.22c-.25-.37-.11-.82-.11-1.24,0-4.44,0-8.88-.05-13.32a16.1,16.1,0,0,0-.47-3.8c-.95-3.78-3.14-5-7.12-5-4.66.11-7.37,3-7.46,7.62s0,9.52-.06,14.28C97.06,33.47,97.06,33.91,97.06,34.48Z"/><path class="cls-1" d="M74.08,26.27h3.49a6.07,6.07,0,0,0,1.76,4.41,4.5,4.5,0,0,0,4.89.94A4,4,0,0,0,87,28.05a4.23,4.23,0,0,0-2.22-4.31,22.2,22.2,0,0,0-3-1.37c-.74-.3-1.49-.58-2.2-.92-3.48-1.67-4.83-4.18-4.19-7.7a7.49,7.49,0,0,1,6.85-6c4-.31,7.83,1.68,8.12,7.12H86.76c-.25-.19-.17-.5-.23-.76a3.68,3.68,0,0,0-3.65-3,3.84,3.84,0,0,0-2.32,7,15.67,15.67,0,0,0,4.21,1.66c2.86.91,5.12,2.45,5.79,5.6A7.83,7.83,0,0,1,84.43,35c-5.16,1-9.37-1.83-10.13-6.79C74.21,27.6,74.16,27,74.08,26.27Z"/><path class="cls-1" d="M71.37,34.49H68.1V0h3.27Z"/><path class="cls-1" d="M152.78,34.48h-3.34V8.42h3.06v2.84c1.74-2.08,3.6-3.29,6.16-3.21v3.5a.84.84,0,0,1-.27.16c-4,.61-5.48,2.25-5.55,6.3-.08,5,0,10.07-.06,15.11C152.78,33.55,152.78,34,152.78,34.48Z"/><path class="cls-1" d="M114.37,43.69l-1.95-2.05,4.47-4.26-2-1.45,7.78-2-2.43,7.7-1.36-2.14Z"/><path class="cls-1" d="M129.06,24.87a1.9,1.9,0,0,1-1.88-1.53,1.54,1.54,0,0,1,1.55-1.49,1.83,1.83,0,0,1,1.94,1.56A1.62,1.62,0,0,1,129.06,24.87Z"/><path class="cls-1" d="M134,21.85a1.47,1.47,0,0,1,1.57,1.35c.09.79-.78,1.62-1.7,1.67a1.61,1.61,0,0,1-1.75-1.42A1.79,1.79,0,0,1,134,21.85Z"/><path class="cls-1" d="M132.1,25.89h-1.29c-.43-.77,0-1.25.54-1.78A1.44,1.44,0,0,1,132.1,25.89Z"/></g></g></svg>
